# xmcd CD database file
#
# Track frame offsets:
#	182
#	12027
#	35105
#	76277
#	99090
#	116832
#	134755
#	160755
#	173050
#	189462
#	218425
#	242895
#
# Disc length: 3691 seconds
#
# Revision: 0
# Processed by: cddbd v1.4PL0 Copyright (c) Steve Scherf et al.
# Submitted via: CDex 1.50
#
DISCID=970e690c
DTITLE=Louis Winsberg - Camino
DYEAR=1990
DGENRE=Jazz
TTITLE0=Cara Cor
TTITLE1=Taormina
TTITLE2=Philou
TTITLE3=TGV
TTITLE4=Lettre a Vincent
TTITLE5=Lundi a la Repet
TTITLE6=Amusette
TTITLE7=Bout d'Chou
TTITLE8=Les Feuilles Mortes
TTITLE9=Zoolou
TTITLE10=C'est Pire a l'Envers
TTITLE11=Vadi
EXTD=YEAR: 1990
EXTT0=
EXTT1=
EXTT2=
EXTT3=
EXTT4=
EXTT5=
EXTT6=
EXTT7=
EXTT8=
EXTT9=
EXTT10=
EXTT11=
PLAYORDER=
